<svg xmlns="http://www.w3.org/2000/svg" xmlns:xlink="http://www.w3.org/1999/xlink" viewBox="0 0 156.68 128.71"><defs><style>.cls-1{fill:url(#linear-gradient);}.cls-2{fill:url(#linear-gradient-2);}.cls-3{fill:url(#linear-gradient-3);}</style><linearGradient id="linear-gradient" x1="102.28" y1="0.58" x2="73.46" y2="79.75" gradientUnits="userSpaceOnUse"><stop offset="0" stop-color="#00ffbe"/><stop offset="0.23" stop-color="#00efb2"/><stop offset="0.56" stop-color="#00d09c"/><stop offset="0.99" stop-color="#096"/></linearGradient><linearGradient id="linear-gradient-2" x1="162.94" y1="114.16" x2="92.71" y2="73.61" gradientUnits="userSpaceOnUse"><stop offset="0" stop-color="#00ffbe"/><stop offset="0.18" stop-color="#00f7b8"/><stop offset="0.46" stop-color="#00e1a9"/><stop offset="0.64" stop-color="#00d09c"/><stop offset="1" stop-color="#096"/></linearGradient><linearGradient id="linear-gradient-3" x1="13.36" y1="117.12" x2="90.9" y2="77.61" gradientUnits="userSpaceOnUse"><stop offset="0" stop-color="#00ffbe"/><stop offset="0.19" stop-color="#00f8b9"/><stop offset="0.45" stop-color="#00e6ac"/><stop offset="0.69" stop-color="#00d09c"/><stop offset="1" stop-color="#096"/></linearGradient></defs><g id="Layer_2" data-name="Layer 2"><g id="Layer_1-2" data-name="Layer 1"><path d="M11.58,124.59a7.05,7.05,0,0,1,.59-2.38c-.75,0-1.51-.09-2.29-.1-2,3.49-3.56,4.11-6.22,4.11S0,124.66,0,122.78c0-2.83,2.38-6.25,5.58-6.25,1.72,0,2.55,1,2.55,2.19a3.84,3.84,0,0,1-2.22,3.22,12.75,12.75,0,0,1,2.55-.57c.28-.46.54-1,.81-1.45,3.53-6.87,6-10.51,8.48-10.51a1.63,1.63,0,0,1,1.74,1.52c0,1.71-2.81,6.42-4.49,10.16.55,0,1.07-.07,1.53-.13a.26.26,0,0,1,0,.14c0,.33-.7.89-2,1.07A8.23,8.23,0,0,0,13.8,125c0,.58.26,1,1,1a1.92,1.92,0,0,0,1.36-.61c.19,0,.3.1.3.25,0,.43-.72,1.14-2.07,1.14C12.32,126.72,11.58,125.86,11.58,124.59ZM8,122.11a15.78,15.78,0,0,0-3.31.52,2.46,2.46,0,0,1-.46.07.44.44,0,0,1-.44-.21,6.45,6.45,0,0,0,2.64-4.28,1.1,1.1,0,0,0-.68-1.09c-1.89.46-3.57,3.44-3.57,5.76a2.46,2.46,0,0,0,1.9,2.7C5.39,125.33,6.76,124,8,122.11Zm2.4-.91c.74,0,1.5,0,2.22-.06,1.92-4.42,5.82-10.46,4.62-11-1.74.88-4.09,5.42-6.23,9.82Z"/><path d="M17.55,121.42a14,14,0,0,1,1.6-5.19c1.63-3.41,3.75-6.72,6.64-6.72,1.2,0,1.81.56,1.81,1.14,0,1.61-4.05,7.51-7.52,8.26a9.53,9.53,0,0,0-.59,2.59,1.61,1.61,0,0,0,.33,1.17A3.52,3.52,0,0,0,22,119.79a1.62,1.62,0,0,0-.3-.91,1,1,0,0,1,.63-.2,2,2,0,0,1,1.42.61,5.1,5.1,0,0,0,3.14-2.78c.1,0,.17,0,.17.23,0,1-1.57,2.6-3.1,3.1,0,1.86-2.24,3.57-4.05,3.58C18.88,123.42,17.55,123,17.55,121.42Zm2.82-3.2c2.09-1.31,5.45-6,5.49-7.69,0-.24-.07-.44-.17-.49-1.9.59-3.32,3.82-4.74,6.85C20.74,117.35,20.54,117.79,20.37,118.22Z"/><path d="M28.32,122.09A9,9,0,0,1,30,118.75c1-1.42,2-2.73,1.92-3.23-1.11,0-5.23,5.8-6.41,7.84-.78,0-1.53-.08-1.53-.61a13.09,13.09,0,0,1,1.33-3.33c.51-1,1.05-2,1.57-3,1.4-2.64,2.82-5.19,3.51-6.29a6.46,6.46,0,0,1-1.13.11c-.61,0-.78-.11-.81-.31a.68.68,0,0,1,.11-.31c1,0,1.66-.1,2.29-.1s1.38.58,1.38,1A13.51,13.51,0,0,1,30.88,113c-1.05,1.86-2.27,4.1-3.34,6.33,1.63-2.37,3.14-4.38,4.49-4.38.76,0,1.83.28,1.83,1a9.83,9.83,0,0,1-1.74,3.33c-.87,1.33-1.9,2.86-1.81,3.44,1.81-.66,4.16-3.8,5.47-6.19.15,0,.18,0,.18.1,0,.82-3.56,6.81-6.09,6.81A1.51,1.51,0,0,1,28.32,122.09Z"/><path d="M34.52,123.42c-.83,0-1.66-.44-1.66-1,0-1.61,3.18-5.89,3.34-7a3.81,3.81,0,0,1-1,.15c-.37,0-.5-.1-.5-.25a.44.44,0,0,1,.07-.24c.65,0,1.28-.08,1.85-.08.87,0,1.4.31,1.4.88,0,1.21-2.86,5.19-3.19,6.75,1.77-.77,4-3.8,5.28-6.12.15,0,.17,0,.17.1C40.27,117.43,36.61,123.42,34.52,123.42Zm5.67-11.37c0,.59-1.14,1.27-2,1.76a9.45,9.45,0,0,0-.87.53c-.17,0-.33-.09-.33-.28a1,1,0,0,1,.24-.5,7.71,7.71,0,0,0,1.09-2.09C39.38,111.49,40.19,111.49,40.19,112.05Z"/><path d="M37.66,122.09c0-3,5-12.54,8.15-12.54a1,1,0,0,1,1,.82c0,2.17-3.51,8.1-6.39,8.69a8.76,8.76,0,0,0-.83,2.9,1,1,0,0,0,.24.72c1.72-.64,4.12-3.72,5.45-6.17.15,0,.17,0,.17.1,0,.82-3.53,6.81-6.06,6.81C38.55,123.42,37.66,122.83,37.66,122.09Zm3.05-3.65c1.85-.88,5.67-7.94,5.41-8.33-.92.26-3.19,3.58-4.69,6.78C41.17,117.42,40.93,117.94,40.71,118.44Z"/><path d="M46.84,122.44a10.61,10.61,0,0,1,.91-2.24c-1.2,1.79-2.18,3.22-3.22,3.22-.77,0-1.75-.55-1.75-1.31a8.57,8.57,0,0,1,1.14-3.54c1-1.93,2.22-3.71,3.7-3.71a1.77,1.77,0,0,1,1.79,1.44c.24-.45.46-.89.65-1.27.9,0,1.6,0,1.6.64a14.32,14.32,0,0,1-1.36,3.24c-.69,1.4-1.57,2.82-1.89,3.61A20.06,20.06,0,0,0,54,115.87c.22,0,.46,0,.46.2,0,.62-1.33,2.86-2.22,4.1-1.42,1.89-3,3.25-4.15,3.25C47.47,123.42,46.84,122.88,46.84,122.44Zm.89-3.26a6.68,6.68,0,0,0,1.18-2.41.77.77,0,0,0-.7-.89c-.44,0-1,.66-2.46,3.43a7.49,7.49,0,0,0-1.12,3.36C45.42,122.39,46.62,120.89,47.73,119.18Z"/><path d="M52.9,123.42c-1.66,0-2.44-.7-2.44-1.35a.73.73,0,0,1,.74-.75,5.39,5.39,0,0,0,1.44,1.4c.7-.5,1.33-2.21,1.48-5.7,0-.41-.33-.48-.33-.67a.18.18,0,0,1,.05-.12c1.41-2.72,2.07-3.67,3.2-3.67a1.7,1.7,0,0,1,1.55,1.33c-1.29.45-3.47,1.17-3.47,2.14,0,.68.72,2.41.7,4a4.33,4.33,0,0,1-.26,1.52,24.15,24.15,0,0,0,3.44-5c.16,0,.18,0,.18.1C59.18,117.43,56.28,123.42,52.9,123.42Z"/><path d="M60.46,122.09a9,9,0,0,1,1.66-3.34c1-1.42,2-2.73,1.92-3.23-1.11,0-5.23,5.8-6.41,7.84-.78,0-1.53-.08-1.53-.61a13.09,13.09,0,0,1,1.33-3.33c.51-1,1-2,1.57-3,1.4-2.64,2.82-5.19,3.51-6.29a6.46,6.46,0,0,1-1.13.11c-.61,0-.78-.11-.81-.31a.68.68,0,0,1,.11-.31c1,0,1.66-.1,2.29-.1s1.38.58,1.38,1A13.51,13.51,0,0,1,63,113c-1.05,1.86-2.27,4.1-3.34,6.33,1.63-2.37,3.14-4.38,4.49-4.38.76,0,1.83.28,1.83,1a9.83,9.83,0,0,1-1.74,3.33c-.85,1.3-1.83,2.78-1.81,3.37a5.51,5.51,0,0,0,2.27-1.95c.17,0,.3,0,.3.18a4,4,0,0,1-3,2.56A1.51,1.51,0,0,1,60.46,122.09Z"/><path d="M82.46,126.47a1.17,1.17,0,0,1-1.11-.54,8.75,8.75,0,0,1-.56-3.71,62.23,62.23,0,0,1,1.35-10.83c-1.83,4.71-3.51,14.85-9.73,14.85-3,0-4.36-1.81-4.36-3.89a5.91,5.91,0,0,1,5.8-5.82,1.94,1.94,0,0,1,2.2,2c0,1.54-1.26,3.36-2.87,3.36a1.09,1.09,0,0,1-1-.54,5.8,5.8,0,0,0,2.38-3.74.73.73,0,0,0-.31-.67c-2.33.49-3.94,3.08-3.94,5.35a3.12,3.12,0,0,0,2.24,3.23c3.77-1.37,5.5-6,7.37-10.59.57-1.4,1.14-2.78,1.81-4.07-2.37,1.62-6.26,3.89-8.5,3.89-1.88,0-2.55-1-2.55-1.83a.86.86,0,0,1,.76-1,1.72,1.72,0,0,0,1.81,1c3.18,0,8.7-2.85,9.46-3.33.85.14,1.7.63,1.7,1.09a26.05,26.05,0,0,1-.63,2.67A37.32,37.32,0,0,0,82.84,124c1.91-6.23,3.27-10.08,4.46-12.25.92-1.68,1.84-2.17,2.82-2.17s1.35.34,1.48.65c-2.9,1.21-5.3,6.08-8.24,14.54a2.9,2.9,0,0,0-.22,1.62A2.1,2.1,0,0,1,82.46,126.47Z"/><path d="M89.27,123.42h0c-1.7,0-3.08-.75-3.08-1.89a9.12,9.12,0,0,1,3-5.84,3.28,3.28,0,0,1,2.29-.84c1.11,0,2.33.41,2.33,1.61,0,1.38-2.22,4.73-4.91,4.73a2.72,2.72,0,0,1-.61-.07,4.81,4.81,0,0,0,0,.49,1,1,0,0,0,.85,1c2.7-.28,5.23-3.62,6.61-6.14.15,0,.17,0,.17.1C95.81,117.43,92.23,123.42,89.27,123.42Zm-.92-2.76c2-.25,3.88-3.61,3.88-4.81a.41.41,0,0,0-.15-.38C91.06,115.52,89,118.63,88.35,120.66Z"/><path d="M90.25,126.73c0-1,.87-2,3.84-2.5.5-.1,1.22-.2,2-.34.5-1,.92-2,1.13-2.34l.68-1.35c-1.13,1.71-2.18,3.08-3.23,3.08-.76,0-1.74-.61-1.74-1.37A8.19,8.19,0,0,1,94,118.57c1-1.93,2.23-3.71,3.71-3.71a1.77,1.77,0,0,1,1.79,1.44c.24-.45.46-.89.65-1.27.9,0,1.59,0,1.59.64a21.17,21.17,0,0,1-1.35,3.24c-.28.63-1,2.18-1.94,4,2.49-1.76,3.77-4,5.1-6.44.16,0,.18,0,.18.1,0,.79-2.47,5.81-5.63,7-.37.74-.76,1.5-1.18,2.27-.89,1.68-2.46,2.8-3.66,2.8C91.32,128.71,90.25,127.75,90.25,126.73Zm5.52-2.23c-2,.57-3.53.92-3.53,2a1.43,1.43,0,0,0,1.56,1.32A15.36,15.36,0,0,0,95.77,124.5Zm2.55-8.62c-.44,0-1,.66-2.47,3.43a7.33,7.33,0,0,0-1.11,3.16,9.18,9.18,0,0,0,3.1-3.29A7,7,0,0,0,99,116.77.77.77,0,0,0,98.32,115.88Z"/><path d="M100.67,122.42c0-1.61,3.19-5.89,3.34-7a3.75,3.75,0,0,1-1,.15c-.37,0-.5-.1-.5-.25a.53.53,0,0,1,.06-.24c.65,0,1.29-.08,1.85-.08.88,0,1.4.31,1.4.88,0,1.22-2.92,5.27-3.21,6.8a5.32,5.32,0,0,0,2.42-2c.18,0,.31,0,.31.18a4,4,0,0,1-3,2.56C101.52,123.42,100.67,123,100.67,122.42ZM108,112.05c0,.59-1.13,1.27-2,1.76a9.91,9.91,0,0,0-.88.53c-.17,0-.32-.09-.32-.28a.92.92,0,0,1,.24-.5,8,8,0,0,0,1.09-2.09C107.19,111.49,108,111.49,108,112.05Z"/><polygon class="cls-1" points="85.08 72.5 98.67 51.58 116.29 24.03 100.68 0 53.55 72.5 85.08 72.5"/><polygon class="cls-2" points="156.68 125 107.89 49.95 92.26 74.39 106.16 95.79 125.55 125 156.68 125"/><polygon class="cls-3" points="87.76 79 22.93 79 6.68 104 104.35 104 87.76 79"/></g></g></svg>